HIERARCHY
ROOT hip
{
  OFFSET 0 0 0
  CHANNELS 6 Xposition Yposition Zposition Zrotation Yrotation Xrotation
  JOINT abdomen
  {
    OFFSET 0 20.6881 -0.73152
    CHANNELS 3 Zrotation Xrotation Yrotation
    JOINT chest
    {
      OFFSET 0 11.7043 -0.48768
      CHANNELS 3 Zrotation Xrotation Yrotation
      JOINT neck
      {
        OFFSET 0 22.1894 -2.19456
        CHANNELS 3 Zrotation Xrotation Yrotation
        JOINT head
        {
          OFFSET -0.24384 7.07133 1.2192
          CHANNELS 3 Zrotation Xrotation Yrotation
          JOINT leftEye
          {
            OFFSET 4.14528 8.04674 8.04672
            CHANNELS 3 Zrotation Xrotation Yrotation
            End Site
            {
              OFFSET 1 0 0
            }
          }
          JOINT rightEye
          {
            OFFSET -3.6576 8.04674 8.04672
            CHANNELS 3 Zrotation Xrotation Yrotation
            End Site
            {
              OFFSET 1 0 0
            }
          }
        }
      }
      JOINT rCollar
      {
        OFFSET -2.68224 19.2634 -4.8768
        CHANNELS 3 Zrotation Xrotation Yrotation
        JOINT rShldr
        {
          OFFSET -8.77824 -1.95073 1.46304
          CHANNELS 3 Zrotation Xrotation Yrotation
          JOINT rForeArm
          {
            OFFSET -28.1742 -1.7115 0.48768
            CHANNELS 3 Zrotation Xrotation Yrotation
            JOINT rHand
            {
              OFFSET -22.5879 0.773209 7.07136
              CHANNELS 3 Zrotation Xrotation Yrotation
              JOINT rThumb1
              {
                OFFSET -1.2192 -0.487915 3.41376
                CHANNELS 3 Zrotation Xrotation Yrotation
                JOINT rThumb2
                {
                  OFFSET -3.37035 -0.52449 3.41376
                  CHANNELS 3 Zrotation Xrotation Yrotation
                  End Site
                  {
                    OFFSET -1.78271 -1.18214 1.43049
                  }
                }
              }
              JOINT rIndex1
              {
                OFFSET -7.75947 0.938293 5.60832
                CHANNELS 3 Zrotation Xrotation Yrotation
                JOINT rIndex2
                {
                  OFFSET -2.54057 -0.884171 1.56538
                  CHANNELS 3 Zrotation Xrotation Yrotation
                  End Site
                  {
                    OFFSET -1.62519 -0.234802 1.16502
                  }
                }
              }
              JOINT rMid1
              {
                OFFSET -8.24714 1.18213 3.41376
                CHANNELS 3 Zrotation Xrotation Yrotation
                JOINT rMid2
                {
                  OFFSET -3.10165 -0.590103 1.0647
                  CHANNELS 3 Zrotation Xrotation Yrotation
                  End Site
                  {
                    OFFSET -2.48547 -0.328903 0.83742
                  }
                }
              }
              JOINT rRing1
              {
                OFFSET -8.82822 0.546677 1.51678
                CHANNELS 3 Zrotation Xrotation Yrotation
                JOINT rRing2
                {
                  OFFSET -2.60934 -0.819778 -0.0198488
                  CHANNELS 3 Zrotation Xrotation Yrotation
                  End Site
                  {
                    OFFSET -2.33842 -0.294052 0.168128
                  }
                }
              }
              JOINT rPinky1
              {
                OFFSET -8.27202 -0.0477905 -0.4584
                CHANNELS 3 Zrotation Xrotation Yrotation
                JOINT rPinky2
                {
                  OFFSET -1.82734 -0.647385 -0.700984
                  CHANNELS 3 Zrotation Xrotation Yrotation
                  End Site
                  {
                    OFFSET -1.69225 -0.51767 -0.607171
                  }
                }
              }
            }
          }
        }
      }
      JOINT lCollar
      {
        OFFSET 2.68224 19.2634 -4.8768
        CHANNELS 3 Zrotation Xrotation Yrotation
        JOINT lShldr
        {
          OFFSET 8.77824 -1.95073 1.46304
          CHANNELS 3 Zrotation Xrotation Yrotation
          JOINT lForeArm
          {
            OFFSET 28.1742 -1.7115 0.48768
            CHANNELS 3 Zrotation Xrotation Yrotation
            JOINT lHand
            {
              OFFSET 22.5879 0.773209 7.07136
              CHANNELS 3 Zrotation Xrotation Yrotation
              JOINT lThumb1
              {
                OFFSET 1.2192 -0.487915 3.41376
                CHANNELS 3 Zrotation Xrotation Yrotation
                JOINT lThumb2
                {
                  OFFSET 3.37035 -0.52449 3.41376
                  CHANNELS 3 Zrotation Xrotation Yrotation
                  End Site
                  {
                    OFFSET 1.78271 -1.18214 1.43049
                  }
                }
              }
              JOINT lIndex1
              {
                OFFSET 7.75947 0.938293 5.60832
                CHANNELS 3 Zrotation Xrotation Yrotation
                JOINT lIndex2
                {
                  OFFSET 2.54057 -0.884171 1.56538
                  CHANNELS 3 Zrotation Xrotation Yrotation
                  End Site
                  {
                    OFFSET 1.62519 -0.234802 1.16502
                  }
                }
              }
              JOINT lMid1
              {
                OFFSET 8.24714 1.18213 3.41376
                CHANNELS 3 Zrotation Xrotation Yrotation
                JOINT lMid2
                {
                  OFFSET 3.10165 -0.590103 1.0647
                  CHANNELS 3 Zrotation Xrotation Yrotation
                  End Site
                  {
                    OFFSET 2.48547 -0.328903 0.83742
                  }
                }
              }
              JOINT lRing1
              {
                OFFSET 8.82822 0.546677 1.51678
                CHANNELS 3 Zrotation Xrotation Yrotation
                JOINT lRing2
                {
                  OFFSET 2.60934 -0.819778 -0.0198488
                  CHANNELS 3 Zrotation Xrotation Yrotation
                  End Site
                  {
                    OFFSET 2.33842 -0.294052 0.168128
                  }
                }
              }
              JOINT lPinky1
              {
                OFFSET 8.27202 -0.0477905 -0.4584
                CHANNELS 3 Zrotation Xrotation Yrotation
                JOINT lPinky2
                {
                  OFFSET 1.82734 -0.647385 -0.700984
                  CHANNELS 3 Zrotation Xrotation Yrotation
                  End Site
                  {
                    OFFSET 1.69225 -0.51767 -0.607171
                  }
                }
              }
            }
          }
        }
      }
    }
  }
  JOINT rButtock
  {
    OFFSET -8.77824 4.35084 1.2192
    CHANNELS 3 Zrotation Xrotation Yrotation
    JOINT rThigh
    {
      OFFSET 0 -1.70687 -2.19456
      CHANNELS 3 Zrotation Xrotation Yrotation
      JOINT rShin
      {
        OFFSET 0 -36.8199 0.73152
        CHANNELS 3 Zrotation Xrotation Yrotation
        JOINT rFoot
        {
          OFFSET 0.73152 -45.1104 -5.12064
          CHANNELS 3 Zrotation Xrotation Yrotation
          End Site
          {
            OFFSET -1.1221 -3.69964 12.103
          }
        }
      }
    }
  }
  JOINT lButtock
  {
    OFFSET 8.77824 4.35084 1.2192
    CHANNELS 3 Zrotation Xrotation Yrotation
    JOINT lThigh
    {
      OFFSET 0 -1.70687 -2.19456
      CHANNELS 3 Zrotation Xrotation Yrotation
      JOINT lShin
      {
        OFFSET 0 -36.8199 0.73152
        CHANNELS 3 Zrotation Xrotation Yrotation
        JOINT lFoot
        {
          OFFSET -0.73152 -45.1104 -5.12064
          CHANNELS 3 Zrotation Xrotation Yrotation
          End Site
          {
            OFFSET 1.1221 -3.69964 12.103
          }
        }
      }
    }
  }
}
MOTION
Frames:	6
Frame Time:	0.00833333
2.7412 82.06 75.6519 -0.1906 -1.6445 -5.1501 -3.99826 12.5011 5.00938 -0.590202 -3.97965 0.957949 -1.45113 0.0426224 -3.4502 2.41144 -2.58374 -6.35722 -0.0 0.0 0.0 -0.0 0.0 0.0 7.36623e-15 -2.38544e-14 -4.62174e-15 79.5258 6.95219 6.511 -12.3962 -5.73033 22.3793 -0.0518124 6.48212 0.914948 -1.78481e-10 9.69517e-10 -5.42507e-10 -3.12165e-10 1.68195e-09 -9.37003e-10 -1.78477e-10 9.69522e-10 -5.42526e-10 7.73091 5.47488 0.417314 -1.78482e-10 9.69518e-10 -5.42514e-10 2.90554 0.965183 0.102902 -1.78471e-10 9.69519e-10 -5.42517e-10 10.2786 0.731801 0.0259123 -1.78483e-10 9.69518e-10 -5.42504e-10 2.22167 -0.733487 -0.20892 7.34432e-15 -2.38545e-14 -4.91992e-15 -79.6818 20.1787 1.44941 9.49506 -3.84014 -16.8579 0.0113344 -3.03821 0.427398 -1.03474e-10 2.41647e-10 8.78291e-10 -1.79539e-10 4.17737e-10 1.51956e-09 -1.03476e-10 2.41649e-10 8.78301e-10 -7.73091 5.47488 -0.417314 -1.03472e-10 2.41646e-10 8.78288e-10 -2.90554 0.965183 -0.102902 -1.03479e-10 2.41646e-10 8.7829e-10 -10.2786 0.731801 -0.0259123 -1.03469e-10 2.41647e-10 8.78278e-10 -2.22167 -0.733487 0.20892 -2.03217e-16 0.0 -3.88251e-19 -4.47062 -19.0286 -4.32759 -2.3828 71.3148 2.50235 -0.150842 10.8607 -1.61786 2.03217e-16 0.0 3.88251e-19 -6.91908 -18.4201 0.427564 0.188899 34.2352 0.0606086 0.194187 -7.99168 -1.56766
2.82214 82.0418 76.5791 -0.1216 -1.3044 -5.1143 -4.07586 12.5798 4.6824 -0.472083 -4.05471 0.869309 -1.45198 0.161041 -3.41094 2.30372 -2.53208 -6.28489 -0.0 0.0 0.0 -0.0 0.0 0.0 -1.05505e-14 2.92428e-14 -4.85625e-15 79.7555 6.46871 6.189 -12.2927 -5.65506 22.1794 -0.0617959 7.00989 0.990277 -7.9834e-11 1.28947e-09 -1.11566e-09 -1.45806e-10 2.23881e-09 -1.92829e-09 -7.98302e-11 1.28948e-09 -1.11568e-09 7.73091 5.47488 0.417314 -7.98357e-11 1.28947e-09 -1.11567e-09 2.90554 0.965183 0.102902 -7.98233e-11 1.28947e-09 -1.11567e-09 10.2786 0.731801 0.0259123 -7.98372e-11 1.28947e-09 -1.11566e-09 2.22167 -0.733487 -0.20892 -1.05909e-14 2.92426e-14 -5.11055e-15 -79.4046 20.7016 1.06652 9.64628 -3.92879 -17.1404 0.0149346 -3.56808 0.502064 1.51986e-11 7.61664e-10 1.60911e-09 2.40657e-11 1.31606e-09 2.78308e-09 1.51956e-11 7.61665e-10 1.60912e-09 -7.73091 5.47488 -0.417314 1.52005e-11 7.61661e-10 1.6091e-09 -2.90554 0.965183 -0.102902 1.51933e-11 7.61661e-10 1.6091e-09 -10.2786 0.731801 -0.0259123 1.52045e-11 7.61662e-10 1.60909e-09 -2.22167 -0.733487 0.20892 -2.03217e-16 0.0 -3.88251e-19 -4.84323 -20.2607 -4.93275 -2.48946 71.9357 2.62986 -0.176618 10.1206 -1.69357 2.03217e-16 0.0 3.88251e-19 -7.08812 -17.7731 0.440637 0.18203 34.3334 0.0108961 0.223474 -8.49209 -1.46523
2.9835 82.0027 77.5748 0.1637 -0.8604 -5.2035 -4.12334 12.6409 4.29639 -0.348903 -4.17298 0.766592 -1.45525 0.342924 -3.35315 2.21281 -2.49567 -6.1756 -0.0 0.0 0.0 -0.0 0.0 0.0 -3.54879e-14 9.70811e-14 2.10588e-15 80.0133 6.0446 5.76469 -12.2294 -5.60992 22.0563 -0.0684353 7.38219 1.04344 -1.62551e-11 1.81708e-09 -1.7525e-09 -4.12806e-11 3.15587e-09 -3.02915e-09 -1.62513e-11 1.81709e-09 -1.75251e-09 7.73091 5.47488 0.417314 -1.62573e-11 1.81708e-09 -1.7525e-09 2.90554 0.965183 0.102902 -1.62443e-11 1.81708e-09 -1.7525e-09 10.2786 0.731801 0.0259123 -1.62602e-11 1.81708e-09 -1.75249e-09 2.22167 -0.733487 -0.20892 -3.55707e-14 9.70808e-14 1.92262e-15 -79.1212 21.2367 0.714724 9.78118 -4.00905 -17.3923 0.0206584 -4.20529 0.592005 1.74794e-10 1.40209e-09 2.49207e-09 2.97671e-10 2.42222e-09 4.30957e-09 1.7479e-10 1.40209e-09 2.49208e-09 -7.73091 5.47488 -0.417314 1.74796e-10 1.40208e-09 2.49207e-09 -2.90554 0.965183 -0.102902 1.74789e-10 1.40208e-09 2.49207e-09 -10.2786 0.731801 -0.0259123 1.74801e-10 1.40208e-09 2.49206e-09 -2.22167 -0.733487 0.20892 -2.03217e-16 0.0 -3.88251e-19 -5.17963 -21.4632 -5.53493 -2.56682 72.3805 2.73053 -0.204815 9.419 -1.6933 2.03217e-16 0.0 3.88251e-19 -7.23935 -17.1786 0.478276 0.174529 34.4026 -0.0402275 0.262125 -8.84053 -1.35038
3.12609 81.9732 78.5118 0.462 -0.539 -5.3276 -4.1699 12.6765 3.88949 -0.220382 -4.28777 0.659993 -1.46438 0.536927 -3.29595 2.14003 -2.48234 -6.06531 -0.0 0.0 0.0 -0.0 0.0 0.0 -5.72697e-14 1.52955e-13 1.04502e-14 80.2632 5.66957 5.3303 -12.1836 -5.57787 21.9663 -0.071737 7.59311 1.07355 1.55715e-11 2.27675e-09 -2.23391e-09 9.28745e-12 3.95462e-09 -3.8611e-09 1.55753e-11 2.27676e-09 -2.23392e-09 7.73091 5.47488 0.417314 1.55689e-11 2.27675e-09 -2.23391e-09 2.90554 0.965183 0.102902 1.55821e-11 2.27675e-09 -2.23391e-09 10.2786 0.731801 0.0259123 1.55645e-11 2.27675e-09 -2.2339e-09 2.22167 -0.733487 -0.20892 -5.7399e-14 1.52955e-13 1.03302e-14 -78.8114 21.7552 0.336665 9.90903 -4.08611 -17.6312 0.0279842 -4.83231 0.680708 3.24268e-10 1.93569e-09 3.18773e-09 5.54116e-10 3.34392e-09 5.51221e-09 3.24262e-10 1.93569e-09 3.18774e-09 -7.73091 5.47488 -0.417314 3.24268e-10 1.93568e-09 3.18773e-09 -2.90554 0.965183 -0.102902 3.24261e-10 1.93568e-09 3.18773e-09 -10.2786 0.731801 -0.0259123 3.24274e-10 1.93568e-09 3.18772e-09 -2.22167 -0.733487 0.20892 -2.03217e-16 0.0 -3.88251e-19 -5.50707 -22.6426 -6.12624 -2.6125 72.6548 2.80178 -0.235541 8.66037 -1.67009 2.03217e-16 0.0 3.88251e-19 -7.39342 -16.615 0.506605 0.167016 34.476 -0.0943704 0.301761 -9.16549 -1.23988
3.0013 81.9448 79.3696 -0.0496 -0.4426 -5.3748 -4.24509 12.6791 3.4999 -0.0858275 -4.35242 0.55973 -1.48242 0.69168 -3.25844 2.0868 -2.4999 -5.99004 -0.0 0.0 0.0 -0.0 0.0 0.0 -6.57199e-14 1.70159e-13 1.43622e-14 80.4716 5.33383 4.97785 -12.1321 -5.5417 21.8658 -0.0720653 7.6367 1.07973 1.89617e-11 2.3929e-09 -2.34079e-09 1.37754e-11 4.15655e-09 -4.04566e-09 1.89652e-11 2.3929e-09 -2.3408e-09 7.73091 5.47488 0.417314 1.89588e-11 2.3929e-09 -2.34079e-09 2.90554 0.965183 0.102902 1.89715e-11 2.3929e-09 -2.34079e-09 10.2786 0.731801 0.0259123 1.89535e-11 2.3929e-09 -2.34078e-09 2.22167 -0.733487 -0.20892 -6.58799e-14 1.70159e-13 1.42628e-14 -78.4533 22.228 -0.125519 10.0389 -4.16507 -17.8744 0.0349913 -5.33165 0.751506 4.12573e-10 2.13523e-09 3.35662e-09 7.0624e-10 3.68886e-09 5.80418e-09 4.12566e-10 2.13523e-09 3.35664e-09 -7.73091 5.47488 -0.417314 4.12573e-10 2.13523e-09 3.35662e-09 -2.90554 0.965183 -0.102902 4.12566e-10 2.13523e-09 3.35662e-09 -10.2786 0.731801 -0.0259123 4.12579e-10 2.13523e-09 3.35662e-09 -2.22167 -0.733487 0.20892 -2.03217e-16 0.0 -3.88251e-19 -5.85236 -23.8057 -6.69863 -2.62578 72.764 2.84267 -0.271591 7.74933 -1.67667 2.03217e-16 0.0 3.88251e-19 -7.56962 -16.0606 0.492152 0.160272 34.5869 -0.153232 0.334564 -9.5955 -1.15053
2.98132 81.9012 80.2989 -0.1067 -0.228 -5.3625 -4.37329 12.6241 3.1321 0.056097 -4.33843 0.466965 -1.5175 0.804315 -3.25271 2.0608 -2.56884 -5.97094 -0.0 0.0 0.0 -0.0 0.0 0.0 -5.2334e-14 1.27191e-13 1.0583e-14 80.6284 5.03053 4.7433 -12.0669 -5.49568 21.7393 -0.067421 7.40987 1.04724 -2.34865e-11 1.96248e-09 -1.87135e-09 -5.62446e-11 3.40901e-09 -3.23399e-09 -2.34831e-11 1.96248e-09 -1.87136e-09 7.73091 5.47488 0.417314 -2.3489e-11 1.96248e-09 -1.87135e-09 2.90554 0.965183 0.102902 -2.34779e-11 1.96247e-09 -1.87135e-09 10.2786 0.731801 0.0259123 -2.34943e-11 1.96247e-09 -1.87134e-09 2.22167 -0.733487 -0.20892 -5.25047e-14 1.2719e-13 1.04323e-14 -78.0348 22.6252 -0.704452 10.1725 -4.24684 -18.1252 0.0396758 -5.64047 0.795356 4.10838e-10 1.83581e-09 2.6972e-09 7.04976e-10 3.17248e-09 4.66416e-09 4.10831e-10 1.83581e-09 2.69722e-09 -7.73091 5.47488 -0.417314 4.10838e-10 1.83581e-09 2.6972e-09 -2.90554 0.965183 -0.102902 4.10832e-10 1.83581e-09 2.6972e-09 -10.2786 0.731801 -0.0259123 4.10843e-10 1.83581e-09 2.6972e-09 -2.22167 -0.733487 0.20892 -2.03217e-16 0.0 -3.88251e-19 -6.24974 -24.9772 -7.27158 -2.60528 72.7175 2.85295 -0.317666 6.60153 -1.7072 2.03217e-16 0.0 3.88251e-19 -7.79893 -15.5231 0.405632 0.155038 34.7704 -0.219564 0.356639 -10.19 -1.09369
